<svg width="128" height="128" viewBox="0 0 128 128" fill="none" xmlns="http://www.w3.org/2000/svg">
<path d="M63.9999 17.7778C50.2755 17.7778 39.1111 28.9423 39.1111 42.6667V50.823C33.9018 52.9342 30.2222 58.0338 30.2222 64.0001V92.4445C30.2222 100.299 36.5902 106.667 44.4444 106.667H83.5555C91.4097 106.667 97.7777 100.299 97.7777 92.4445V64.0001C97.7777 58.0338 94.0981 52.9342 88.8888 50.823V42.6667C88.8888 28.9423 77.7244 17.7778 63.9999 17.7778ZM63.9999 32.0001C69.8826 32.0001 74.6666 36.7841 74.6666 42.6667V49.7778H53.3333V42.6667C53.3333 36.7841 58.1173 32.0001 63.9999 32.0001Z" fill="#FF335F"/>
</svg>
