<svg width="128" height="128" viewBox="0 0 128 128" fill="none" xmlns="http://www.w3.org/2000/svg">
<path d="M86.3333 20C72.6089 20 61.4444 31.1644 61.4444 44.8889V52H31.2222C23.368 52 17 58.368 17 66.2222V94.6667C17 102.521 23.368 108.889 31.2222 108.889H70.3333C78.1876 108.889 84.5556 102.521 84.5556 94.6667V66.2222C84.5556 60.256 80.8759 55.1564 75.6667 53.0451V44.8889C75.6667 39.0062 80.4507 34.2222 86.3333 34.2222C92.216 34.2222 97 39.0062 97 44.8889V59.1111C97 63.0382 100.184 66.2222 104.111 66.2222C108.038 66.2222 111.222 63.0382 111.222 59.1111V44.8889C111.222 31.1644 100.058 20 86.3333 20Z" fill="#E2F128"/>
</svg>
